<svg id="SvgjsSvg3214" width="700" height="700" xmlns="http://www.w3.org/2000/svg" version="1.1" xmlns:xlink="http://www.w3.org/1999/xlink" xmlns:svgjs="http://svgjs.com/svgjs"><defs id="SvgjsDefs3215"><linearGradient id="SvgjsLinearGradient3220" x1="0" y1="1" x2="1" y2="0"><stop id="SvgjsStop3221" stop-color="#d5ddec" offset="0"></stop><stop id="SvgjsStop3222" stop-color="#345aa3" offset="1"></stop></linearGradient><linearGradient id="SvgjsLinearGradient3227" x1="0" y1="0" x2="1" y2="1"><stop id="SvgjsStop3228" stop-color="#f6dcfb" offset="0"></stop><stop id="SvgjsStop3229" stop-color="#d55eea" offset="1"></stop></linearGradient><linearGradient id="SvgjsLinearGradient3234" x1="1" y1="0" x2="0" y2="1"><stop id="SvgjsStop3235" stop-color="#c1dcbf" offset="0"></stop><stop id="SvgjsStop3236" stop-color="#32842d" offset="1"></stop></linearGradient><linearGradient id="SvgjsLinearGradient3241" x1="1" y1="1" x2="0" y2="0"><stop id="SvgjsStop3242" stop-color="#fbc9c8" offset="0"></stop><stop id="SvgjsStop3243" stop-color="#f03230" offset="1"></stop></linearGradient><linearGradient id="SvgjsLinearGradient3248" x1="0" y1="1" x2="1" y2="0"><stop id="SvgjsStop3249" stop-color="#d5ddec" offset="0"></stop><stop id="SvgjsStop3250" stop-color="#345aa3" offset="1"></stop></linearGradient><linearGradient id="SvgjsLinearGradient3255" x1="0" y1="0" x2="1" y2="1"><stop id="SvgjsStop3256" stop-color="#f6dcfb" offset="0"></stop><stop id="SvgjsStop3257" stop-color="#d55eea" offset="1"></stop></linearGradient><linearGradient id="SvgjsLinearGradient3262" x1="1" y1="0" x2="0" y2="1"><stop id="SvgjsStop3263" stop-color="#c1dcbf" offset="0"></stop><stop id="SvgjsStop3264" stop-color="#32842d" offset="1"></stop></linearGradient><linearGradient id="SvgjsLinearGradient3269" x1="1" y1="1" x2="0" y2="0"><stop id="SvgjsStop3270" stop-color="#fbc9c8" offset="0"></stop><stop id="SvgjsStop3271" stop-color="#f03230" offset="1"></stop></linearGradient><linearGradient id="SvgjsLinearGradient3276" x1="0" y1="1" x2="1" y2="0"><stop id="SvgjsStop3277" stop-color="#d5ddec" offset="0"></stop><stop id="SvgjsStop3278" stop-color="#345aa3" offset="1"></stop></linearGradient><linearGradient id="SvgjsLinearGradient3283" x1="0" y1="0" x2="1" y2="1"><stop id="SvgjsStop3284" stop-color="#f6dcfb" offset="0"></stop><stop id="SvgjsStop3285" stop-color="#d55eea" offset="1"></stop></linearGradient><linearGradient id="SvgjsLinearGradient3290" x1="1" y1="0" x2="0" y2="1"><stop id="SvgjsStop3291" stop-color="#c1dcbf" offset="0"></stop><stop id="SvgjsStop3292" stop-color="#32842d" offset="1"></stop></linearGradient><linearGradient id="SvgjsLinearGradient3297" x1="1" y1="1" x2="0" y2="0"><stop id="SvgjsStop3298" stop-color="#fbc9c8" offset="0"></stop><stop id="SvgjsStop3299" stop-color="#f03230" offset="1"></stop></linearGradient><linearGradient id="SvgjsLinearGradient3304" x1="0" y1="1" x2="1" y2="0"><stop id="SvgjsStop3305" stop-color="#d5ddec" offset="0"></stop><stop id="SvgjsStop3306" stop-color="#345aa3" offset="1"></stop></linearGradient><linearGradient id="SvgjsLinearGradient3313" x1="0" y1="0" x2="1" y2="1"><stop id="SvgjsStop3314" stop-color="#f6dcfb" offset="0"></stop><stop id="SvgjsStop3315" stop-color="#d55eea" offset="1"></stop></linearGradient><linearGradient id="SvgjsLinearGradient3322" x1="1" y1="0" x2="0" y2="1"><stop id="SvgjsStop3323" stop-color="#c1dcbf" offset="0"></stop><stop id="SvgjsStop3324" stop-color="#32842d" offset="1"></stop></linearGradient><linearGradient id="SvgjsLinearGradient3331" x1="1" y1="1" x2="0" y2="0"><stop id="SvgjsStop3332" stop-color="#fbc9c8" offset="0"></stop><stop id="SvgjsStop3333" stop-color="#f03230" offset="1"></stop></linearGradient></defs><rect id="SvgjsRect3216" width="350" height="350" x="350" y="0" fill="#e6e6e6"></rect><rect id="SvgjsRect3217" width="350" height="350" x="350" y="350" fill="#e6e6e6"></rect><rect id="SvgjsRect3218" width="350" height="350" x="0" y="350" fill="#e6e6e6"></rect><rect id="SvgjsRect3219" width="350" height="350" x="0" y="0" fill="#e6e6e6"></rect><polygon id="SvgjsPolygon3223" points="350,350 350,115.58139534883722 536.6666666666666,163.33333333333334 524.2222222222222,350" fill="url(#SvgjsLinearGradient3220)"></polygon><circle id="SvgjsCircle3224" r="2" cx="350" cy="115.58139534883722" fill="black"></circle><circle id="SvgjsCircle3225" r="2" cx="536.6666666666666" cy="163.33333333333334" fill="black"></circle><circle id="SvgjsCircle3226" r="2" cx="524.2222222222222" cy="350" fill="black"></circle><polygon id="SvgjsPolygon3230" points="350,350 524.2222222222222,350 513.3333333333333,513.3333333333333 350,518.9655172413793" fill="url(#SvgjsLinearGradient3227)"></polygon><circle id="SvgjsCircle3231" r="2" cx="524.2222222222222" cy="350" fill="black"></circle><circle id="SvgjsCircle3232" r="2" cx="513.3333333333333" cy="513.3333333333333" fill="black"></circle><circle id="SvgjsCircle3233" r="2" cx="350" cy="518.9655172413793" fill="black"></circle><polygon id="SvgjsPolygon3237" points="350,350 350,518.9655172413793 175,525 125.00000000000003,350" fill="url(#SvgjsLinearGradient3234)"></polygon><circle id="SvgjsCircle3238" r="2" cx="350" cy="518.9655172413793" fill="black"></circle><circle id="SvgjsCircle3239" r="2" cx="175" cy="525" fill="black"></circle><circle id="SvgjsCircle3240" r="2" cx="125.00000000000003" cy="350" fill="black"></circle><polygon id="SvgjsPolygon3244" points="350,350 350,115.58139534883722 35,35 125.00000000000003,350" fill="url(#SvgjsLinearGradient3241)"></polygon><circle id="SvgjsCircle3245" r="2" cx="350" cy="115.58139534883722" fill="black"></circle><circle id="SvgjsCircle3246" r="2" cx="35" cy="35" fill="black"></circle><circle id="SvgjsCircle3247" r="2" cx="125.00000000000003" cy="350" fill="black"></circle><polygon id="SvgjsPolygon3251" points="350,350 350,151.9512195121951 688.3333333333333,11.666666666666686 656.4150943396226,350" fill="url(#SvgjsLinearGradient3248)"></polygon><circle id="SvgjsCircle3252" r="2" cx="350" cy="151.9512195121951" fill="black"></circle><circle id="SvgjsCircle3253" r="2" cx="688.3333333333333" cy="11.666666666666686" fill="black"></circle><circle id="SvgjsCircle3254" r="2" cx="656.4150943396226" cy="350" fill="black"></circle><polygon id="SvgjsPolygon3258" points="350,350 656.4150943396226,350 630,630 350,476.4516129032258" fill="url(#SvgjsLinearGradient3255)"></polygon><circle id="SvgjsCircle3259" r="2" cx="656.4150943396226" cy="350" fill="black"></circle><circle id="SvgjsCircle3260" r="2" cx="630" cy="630" fill="black"></circle><circle id="SvgjsCircle3261" r="2" cx="350" cy="476.4516129032258" fill="black"></circle><polygon id="SvgjsPolygon3265" points="350,350 350,476.4516129032258 268.33333333333337,431.66666666666663 246.84210526315792,350" fill="url(#SvgjsLinearGradient3262)"></polygon><circle id="SvgjsCircle3266" r="2" cx="350" cy="476.4516129032258" fill="black"></circle><circle id="SvgjsCircle3267" r="2" cx="268.33333333333337" cy="431.66666666666663" fill="black"></circle><circle id="SvgjsCircle3268" r="2" cx="246.84210526315792" cy="350" fill="black"></circle><polygon id="SvgjsPolygon3272" points="350,350 350,151.9512195121951 210,210 246.84210526315792,350" fill="url(#SvgjsLinearGradient3269)"></polygon><circle id="SvgjsCircle3273" r="2" cx="350" cy="151.9512195121951" fill="black"></circle><circle id="SvgjsCircle3274" r="2" cx="210" cy="210" fill="black"></circle><circle id="SvgjsCircle3275" r="2" cx="246.84210526315792" cy="350" fill="black"></circle><polygon id="SvgjsPolygon3279" points="350,350 350,106.25000000000003 612.5,87.5 590.3614457831325,350" fill="url(#SvgjsLinearGradient3276)"></polygon><circle id="SvgjsCircle3280" r="2" cx="350" cy="106.25000000000003" fill="black"></circle><circle id="SvgjsCircle3281" r="2" cx="612.5" cy="87.5" fill="black"></circle><circle id="SvgjsCircle3282" r="2" cx="590.3614457831325" cy="350" fill="black"></circle><polygon id="SvgjsPolygon3286" points="350,350 590.3614457831325,350 571.6666666666666,571.6666666666666 350,512.5555555555555" fill="url(#SvgjsLinearGradient3283)"></polygon><circle id="SvgjsCircle3287" r="2" cx="590.3614457831325" cy="350" fill="black"></circle><circle id="SvgjsCircle3288" r="2" cx="571.6666666666666" cy="571.6666666666666" fill="black"></circle><circle id="SvgjsCircle3289" r="2" cx="350" cy="512.5555555555555" fill="black"></circle><polygon id="SvgjsPolygon3293" points="350,350 350,512.5555555555555 221.66666666666669,478.3333333333333 185.90163934426232,350" fill="url(#SvgjsLinearGradient3290)"></polygon><circle id="SvgjsCircle3294" r="2" cx="350" cy="512.5555555555555" fill="black"></circle><circle id="SvgjsCircle3295" r="2" cx="221.66666666666669" cy="478.3333333333333" fill="black"></circle><circle id="SvgjsCircle3296" r="2" cx="185.90163934426232" cy="350" fill="black"></circle><polygon id="SvgjsPolygon3300" points="350,350 350,106.25000000000003 122.5,122.5 185.90163934426232,350" fill="url(#SvgjsLinearGradient3297)"></polygon><circle id="SvgjsCircle3301" r="2" cx="350" cy="106.25000000000003" fill="black"></circle><circle id="SvgjsCircle3302" r="2" cx="122.5" cy="122.5" fill="black"></circle><circle id="SvgjsCircle3303" r="2" cx="185.90163934426232" cy="350" fill="black"></circle><polygon id="SvgjsPolygon3307" points="350,350 350,106.25000000000003 612.5,87.5 590.3614457831325,350" fill="url(#SvgjsLinearGradient3304)"></polygon><line id="SvgjsLine3308" x1="350" y1="106.25000000000003" x2="612.5" y2="87.5" stroke="#afafaf" stroke-width="3"></line><line id="SvgjsLine3309" x1="612.5" y1="87.5" x2="590.3614457831325" y2="350" stroke="#afafaf" stroke-width="3"></line><circle id="SvgjsCircle3310" r="2" cx="350" cy="106.25000000000003" fill="black"></circle><circle id="SvgjsCircle3311" r="2" cx="612.5" cy="87.5" fill="black"></circle><circle id="SvgjsCircle3312" r="2" cx="590.3614457831325" cy="350" fill="black"></circle><polygon id="SvgjsPolygon3316" points="350,350 590.3614457831325,350 571.6666666666666,571.6666666666666 350,512.5555555555555" fill="url(#SvgjsLinearGradient3313)"></polygon><line id="SvgjsLine3317" x1="590.3614457831325" y1="350" x2="571.6666666666666" y2="571.6666666666666" stroke="#afafaf" stroke-width="3"></line><line id="SvgjsLine3318" x1="571.6666666666666" y1="571.6666666666666" x2="350" y2="512.5555555555555" stroke="#afafaf" stroke-width="3"></line><circle id="SvgjsCircle3319" r="2" cx="590.3614457831325" cy="350" fill="black"></circle><circle id="SvgjsCircle3320" r="2" cx="571.6666666666666" cy="571.6666666666666" fill="black"></circle><circle id="SvgjsCircle3321" r="2" cx="350" cy="512.5555555555555" fill="black"></circle><polygon id="SvgjsPolygon3325" points="350,350 350,512.5555555555555 221.66666666666669,478.3333333333333 185.90163934426232,350" fill="url(#SvgjsLinearGradient3322)"></polygon><line id="SvgjsLine3326" x1="350" y1="512.5555555555555" x2="221.66666666666669" y2="478.3333333333333" stroke="#afafaf" stroke-width="3"></line><line id="SvgjsLine3327" x1="221.66666666666669" y1="478.3333333333333" x2="185.90163934426232" y2="350" stroke="#afafaf" stroke-width="3"></line><circle id="SvgjsCircle3328" r="2" cx="350" cy="512.5555555555555" fill="black"></circle><circle id="SvgjsCircle3329" r="2" cx="221.66666666666669" cy="478.3333333333333" fill="black"></circle><circle id="SvgjsCircle3330" r="2" cx="185.90163934426232" cy="350" fill="black"></circle><polygon id="SvgjsPolygon3334" points="350,350 350,106.25000000000003 122.5,122.5 185.90163934426232,350" fill="url(#SvgjsLinearGradient3331)"></polygon><line id="SvgjsLine3335" x1="350" y1="106.25000000000003" x2="122.5" y2="122.5" stroke="#afafaf" stroke-width="3"></line><line id="SvgjsLine3336" x1="122.5" y1="122.5" x2="185.90163934426232" y2="350" stroke="#afafaf" stroke-width="3"></line><circle id="SvgjsCircle3337" r="2" cx="350" cy="106.25000000000003" fill="black"></circle><circle id="SvgjsCircle3338" r="2" cx="122.5" cy="122.5" fill="black"></circle><circle id="SvgjsCircle3339" r="2" cx="185.90163934426232" cy="350" fill="black"></circle><text id="SvgjsText3340" font-family="Arial" x="630" y="18.203125" fill="black" font-size="20px" text-anchor="middle" svgjs:data="{&quot;leading&quot;:&quot;1.3&quot;}"><tspan id="SvgjsTspan3341" dy="26" x="630" svgjs:data="{&quot;newLined&quot;:true}">Merchant 22.50</tspan></text><text id="SvgjsText3342" font-family="Arial" x="630" y="38.203125" fill="black" font-size="16px" text-anchor="middle" svgjs:data="{&quot;leading&quot;:&quot;1.3&quot;}"><tspan id="SvgjsTspan3343" dy="20.8" x="630" svgjs:data="{&quot;newLined&quot;:true}">[Love]</tspan></text><text id="SvgjsText3344" font-family="Arial" x="630" y="648.203125" fill="black" font-size="20px" text-anchor="middle" svgjs:data="{&quot;leading&quot;:&quot;1.3&quot;}"><tspan id="SvgjsTspan3345" dy="26" x="630" svgjs:data="{&quot;newLined&quot;:true}">Innovator 19</tspan></text><text id="SvgjsText3346" font-family="Arial" x="630" y="668.203125" fill="black" font-size="16px" text-anchor="middle" svgjs:data="{&quot;leading&quot;:&quot;1.3&quot;}"><tspan id="SvgjsTspan3347" dy="20.8" x="630" svgjs:data="{&quot;newLined&quot;:true}">[Wisdom]</tspan></text><text id="SvgjsText3348" font-family="Arial" x="70" y="648.203125" fill="black" font-size="20px" text-anchor="middle" svgjs:data="{&quot;leading&quot;:&quot;1.3&quot;}"><tspan id="SvgjsTspan3349" dy="26" x="70" svgjs:data="{&quot;newLined&quot;:true}">Banker 11</tspan></text><text id="SvgjsText3350" font-family="Arial" x="70" y="668.203125" fill="black" font-size="16px" text-anchor="middle" svgjs:data="{&quot;leading&quot;:&quot;1.3&quot;}"><tspan id="SvgjsTspan3351" dy="20.8" x="70" svgjs:data="{&quot;newLined&quot;:true}">[Knowledge]</tspan></text><text id="SvgjsText3352" font-family="Arial" x="70" y="18.203125" fill="black" font-size="20px" text-anchor="middle" svgjs:data="{&quot;leading&quot;:&quot;1.3&quot;}"><tspan id="SvgjsTspan3353" dy="26" x="70" svgjs:data="{&quot;newLined&quot;:true}">Builder 19.50</tspan></text><text id="SvgjsText3354" font-family="Arial" x="70" y="38.203125" fill="black" font-size="16px" text-anchor="middle" svgjs:data="{&quot;leading&quot;:&quot;1.3&quot;}"><tspan id="SvgjsTspan3355" dy="20.8" x="70" svgjs:data="{&quot;newLined&quot;:true}">[Power]</tspan></text><line id="SvgjsLine3356" x1="350" y1="0" x2="350" y2="700" stroke="white" stroke-width="6"></line><line id="SvgjsLine3357" x1="0" y1="350" x2="700" y2="350" stroke="white" stroke-width="6"></line></svg>